<svg id="eefNWq1RnPD1" xmlns="http://www.w3.org/2000/svg" xmlns:xlink="http://www.w3.org/1999/xlink" viewBox="0 0 900 642" shape-rendering="geometricPrecision" text-rendering="geometricPrecision"><path id="eefNWq1RnPD2" d="M319.387,188.458C347.536,188.458,370.355,165.668,370.355,137.555C370.355,109.442,347.536,86.6518,319.387,86.6518C291.238,86.6518,268.419,109.442,268.419,137.555C268.419,165.668,291.238,188.458,319.387,188.458Z" fill="rgb(243,36,134)" stroke="none" stroke-width="1"/><path id="eefNWq1RnPD3" d="M450,335C201.988,335,0.843227,472.35,0,642L900,642C899.157,472.35,698.012,335,450,335Z" fill="rgb(28,27,32)" stroke="none" stroke-width="1"/><g id="eefNWq1RnPD4" opacity="0.1"><path id="eefNWq1RnPD5" d="M388.633,432.92C415.448,432.92,437.186,426.889,437.186,419.45C437.186,412.011,415.448,405.98,388.633,405.98C361.818,405.98,340.08,412.011,340.08,419.45C340.08,426.889,361.818,432.92,388.633,432.92Z" opacity="0.1" fill="rgb(0,0,0)" stroke="none" stroke-width="1"/></g><g id="eefNWq1RnPD6" opacity="0.1"><path id="eefNWq1RnPD7" d="M493.628,408.674C520.444,408.674,542.181,402.643,542.181,395.204C542.181,387.765,520.444,381.734,493.628,381.734C466.813,381.734,445.076,387.765,445.076,395.204C445.076,402.643,466.813,408.674,493.628,408.674Z" opacity="0.1" fill="rgb(0,0,0)" stroke="none" stroke-width="1"/></g><g id="eefNWq1RnPD8" opacity="0.1"><path id="eefNWq1RnPD9" d="M388.633,431.573C412.766,431.573,432.33,426.145,432.33,419.45C432.33,412.755,412.766,407.327,388.633,407.327C364.499,407.327,344.935,412.755,344.935,419.45C344.935,426.145,364.499,431.573,388.633,431.573Z" opacity="0.1" fill="rgb(0,0,0)" stroke="none" stroke-width="1"/></g><g id="eefNWq1RnPD10" opacity="0.1"><path id="eefNWq1RnPD11" d="M493.629,407.327C517.762,407.327,537.326,401.9,537.326,395.204C537.326,388.509,517.762,383.081,493.629,383.081C469.495,383.081,449.931,388.509,449.931,395.204C449.931,401.9,469.495,407.327,493.629,407.327Z" opacity="0.1" fill="rgb(0,0,0)" stroke="none" stroke-width="1"/></g><path id="eefNWq1RnPD12" d="M258.754,180.024C261.1,180.024,263.002,178.124,263.002,175.781C263.002,173.438,261.1,171.538,258.754,171.538C256.407,171.538,254.505,173.438,254.505,175.781C254.505,178.124,256.407,180.024,258.754,180.024Z" fill="rgb(242,242,242)" stroke="none" stroke-width="1"/><path id="eefNWq1RnPD13" d="M624.114,346.107C626.461,346.107,628.363,344.207,628.363,341.864C628.363,339.521,626.461,337.621,624.114,337.621C621.768,337.621,619.866,339.521,619.866,341.864C619.866,344.207,621.768,346.107,624.114,346.107Z" fill="rgb(242,242,242)" stroke="none" stroke-width="1"/><path id="eefNWq1RnPD14" d="M423.834,209.725C426.18,209.725,428.082,207.825,428.082,205.482C428.082,203.139,426.18,201.239,423.834,201.239C421.487,201.239,419.585,203.139,419.585,205.482C419.585,207.825,421.487,209.725,423.834,209.725Z" transform="matrix(1 0 0 1 -0.623782 0)" fill="rgb(242,242,242)" stroke="none" stroke-width="1"/><path id="eefNWq1RnPD15" d="M634.432,182.449C635.773,182.449,636.86,181.363,636.86,180.024C636.86,178.685,635.773,177.6,634.432,177.6C633.091,177.6,632.004,178.685,632.004,180.024C632.004,181.363,633.091,182.449,634.432,182.449Z" fill="rgb(243,36,134)" stroke="none" stroke-width="1"/><path id="eefNWq1RnPD16" d="M268.464,303.677C269.805,303.677,270.892,302.591,270.892,301.252C270.892,299.913,269.805,298.828,268.464,298.828C267.124,298.828,266.037,299.913,266.037,301.252C266.037,302.591,267.124,303.677,268.464,303.677Z" fill="rgb(255,101,132)" stroke="none" stroke-width="1"/><path id="eefNWq1RnPD17" d="M232.05,352.363L230.944,352.363L230.944,351.259L230.728,351.259L230.728,352.363L229.622,352.363L229.622,352.579L230.728,352.579L230.728,353.684L230.944,353.684L230.944,352.579L232.05,352.579L232.05,352.363Z" fill="rgb(242,242,242)" stroke="none" stroke-width="1"/><path id="eefNWq1RnPD18" d="M587.093,262.654L585.987,262.654L585.987,261.55L585.771,261.55L585.771,262.654L584.665,262.654L584.665,262.87L585.771,262.87L585.771,263.975L585.987,263.975L585.987,262.87L587.093,262.87L587.093,262.654Z" fill="rgb(242,242,242)" stroke="none" stroke-width="1"/><path id="eefNWq1RnPD19" d="M678.736,244.47L677.631,244.47L677.631,243.366L677.415,243.366L677.415,244.47L676.309,244.47L676.309,244.686L677.415,244.686L677.415,245.79L677.631,245.79L677.631,244.686L678.736,244.686L678.736,244.47Z" fill="rgb(242,242,242)" stroke="none" stroke-width="1"/><path id="eefNWq1RnPD20" d="M481.49,292.962L480.384,292.962L480.384,291.857L480.168,291.857L480.168,292.962L479.063,292.962L479.063,293.177L480.168,293.177L480.168,294.282L480.384,294.282L480.384,293.177L481.49,293.177L481.49,292.962Z" fill="rgb(242,242,242)" stroke="none" stroke-width="1"/><path id="eefNWq1RnPD21" d="M652.032,299.023L650.927,299.023L650.927,297.919L650.711,297.919L650.711,299.023L649.605,299.023L649.605,299.239L650.711,299.239L650.711,300.343L650.927,300.343L650.927,299.239L652.032,299.239L652.032,299.023Z" fill="rgb(242,242,242)" stroke="none" stroke-width="1"/><path id="eefNWq1RnPD22" d="M446.289,325.087L445.184,325.087L445.184,323.983L444.968,323.983L444.968,325.087L443.862,325.087L443.862,325.303L444.968,325.303L444.968,326.407L445.184,326.407L445.184,325.303L446.289,325.303L446.289,325.087Z" fill="rgb(242,242,242)" stroke="none" stroke-width="1"/><path id="eefNWq1RnPD23" d="M523.974,326.299L522.868,326.299L522.868,325.195L522.652,325.195L522.652,326.299L521.546,326.299L521.546,326.515L522.652,326.515L522.652,327.62L522.868,327.62L522.868,326.515L523.974,326.515L523.974,326.299Z" fill="rgb(242,242,242)" stroke="none" stroke-width="1"/><path id="eefNWq1RnPD24" d="M233.264,223.255L232.158,223.255L232.158,222.151L231.942,222.151L231.942,223.255L230.836,223.255L230.836,223.471L231.942,223.471L231.942,224.575L232.158,224.575L232.158,223.471L233.264,223.471L233.264,223.255Z" fill="rgb(242,242,242)" stroke="none" stroke-width="1"/><g id="eefNWq1RnPD25" transform="matrix(1 0 0 1 -8.628228 -39.613279)"><path id="eefNWq1RnPD26" d="M587.622,139.83L585.877,139.83L585.877,175.025L587.622,175.025L587.622,139.83Z" fill="rgb(230,230,230)" stroke="none" stroke-width="1"/><g id="eefNWq1RnPD27" transform="matrix(1 0 0 1 -0.195025 -11.938998)"><path id="eefNWq1RnPD28" d="M546.277,233.392L530.227,270.329L533.367,275.556L532.32,277.298L539.648,281.132L539.648,279.041L542.439,278.344L554.301,256.739L546.277,233.392Z" fill="rgb(230,230,230)" stroke="none" stroke-width="1"/><path id="eefNWq1RnPD29" d="M533.716,276.95C533.716,276.95,521.853,295.419,535.112,298.206C548.37,300.994,537.554,278.692,537.554,278.692L533.716,276.95Z" fill="rgb(230,230,230)" stroke="none" stroke-width="1"/></g><path id="eefNWq1RnPD30" d="M550.812,268.587L546.626,282.177L544.881,299.6L541.741,305.872L545.23,334.098L550.812,339.673L553.255,367.55L553.255,380.095L559.884,391.594L551.347,403.695C550.944,404.264,550.704,404.931,550.65,405.625C550.596,406.32,550.732,407.016,551.043,407.639C551.353,408.263,551.827,408.791,552.414,409.167C553.001,409.543,553.679,409.753,554.376,409.775C556.261,409.825,558.745,409.293,561.977,407.623C572.096,402.396,571.747,397.518,571.747,397.518C571.747,397.518,578.027,397.518,578.376,392.639C578.725,387.761,574.538,352.915,574.538,352.915L570.7,337.931L570.7,297.161L572.096,297.161L572.793,332.007L575.934,344.9L576.282,350.475L580.818,406.229C580.818,406.229,601.055,411.805,602.101,407.275C603.148,402.745,594.425,399.957,594.425,399.957L599.659,389.852L599.659,370.338L597.915,366.156L594.774,337.931L600.008,332.355L602.799,328.871L602.799,300.994L599.31,290.192L598.263,281.132L592.681,267.193C592.681,267.193,567.211,258.83,550.812,268.587Z" fill="rgb(255,255,255)" stroke="none" stroke-width="1"/><path id="eefNWq1RnPD31" d="M596.17,189.835C596.17,194.026,595.174,198.158,593.264,201.89C591.354,205.622,588.584,208.848,585.182,211.302C581.78,213.757,577.844,215.37,573.696,216.009C569.548,216.648,565.308,216.295,561.324,214.978C557.339,213.661,553.725,211.419,550.777,208.435C547.83,205.452,545.633,201.812,544.369,197.815C543.104,193.819,542.808,189.579,543.503,185.446C544.199,181.312,545.867,177.403,548.37,174.039L548.377,174.032C551.703,169.563,556.355,166.256,561.671,164.579C566.987,162.902,572.697,162.941,577.989,164.691C583.281,166.441,587.887,169.813,591.151,174.327C594.415,178.84,596.171,184.267,596.17,189.835Z" fill="rgb(107,84,182)" stroke="none" stroke-width="1"/><g id="eefNWq1RnPD32" opacity="0.1"><path id="eefNWq1RnPD33" d="M592.402,178.855L590.239,191.228C573.983,149.085,548.126,174.973,547.679,175.426C550.352,171.836,553.891,168.982,557.966,167.128C562.042,165.274,566.522,164.481,570.987,164.823C575.453,165.165,579.759,166.632,583.503,169.085C587.248,171.539,590.309,174.9,592.402,178.855L592.402,178.855Z" opacity="0.1" fill="rgb(0,0,0)" stroke="none" stroke-width="1"/></g><path id="eefNWq1RnPD34" d="M593.1,177.461L590.936,189.835C574.681,147.692,548.824,173.579,548.377,174.032C551.049,170.442,554.589,167.588,558.664,165.734C562.74,163.88,567.22,163.087,571.685,163.429C576.151,163.772,580.456,165.238,584.201,167.691C587.946,170.145,591.007,173.506,593.1,177.461L593.1,177.461Z" fill="rgb(255,255,255)" stroke="none" stroke-width="1"/><path id="eefNWq1RnPD35" d="M589.465,172.237L593.1,184.839C593.1,184.839,585.554,207.426,550.564,208.213L549.417,211.439L545.579,212.485L543.834,219.802L548.719,266.148C548.719,266.148,546.626,270.678,550.115,270.329C550.115,270.329,573.142,262.663,593.03,269.632C593.03,269.632,597.217,271.375,596.17,267.542C596.17,267.542,610.126,258.83,609.08,249.77C608.033,240.71,610.126,198.546,610.126,198.546C610.126,198.546,612.22,186.35,605.939,183.562C605.939,183.562,596.716,170.668,589.465,172.237Z" fill="rgb(255,255,255)" stroke="none" stroke-width="1"/><g id="eefNWq1RnPD36"><path id="eefNWq1RnPD37" d="M581.815,260.288C581.815,260.288,559.955,262.48,566.007,274.588C572.058,286.695,582.833,264.374,582.833,264.374L581.815,260.288Z" fill="rgb(230,230,230)" stroke="none" stroke-width="1"/><path id="eefNWq1RnPD38" d="M593.03,206.212C593.03,206.212,589.192,210.742,590.588,218.06C591.983,225.378,597.217,241.755,597.217,241.755L578.725,258.83L584.307,266.496L609.428,253.603L615.011,250.118C613.623,236.024,610.169,222.21,604.759,209.119L603.846,206.909C603.846,206.909,597.217,204.122,593.03,206.212Z" fill="rgb(230,230,230)" stroke="none" stroke-width="1"/></g><path id="eefNWq1RnPD39" d="M591.285,193.842C594.85,193.842,597.74,190.956,597.74,187.395C597.74,183.835,594.85,180.949,591.285,180.949C587.72,180.949,584.831,183.835,584.831,187.395C584.831,190.956,587.72,193.842,591.285,193.842Z" fill="rgb(230,230,230)" stroke="none" stroke-width="1"/><path id="eefNWq1RnPD40" d="M586.749,144.36C589.351,144.36,591.46,142.254,591.46,139.656C591.46,137.058,589.351,134.952,586.749,134.952C584.148,134.952,582.039,137.058,582.039,139.656C582.039,142.254,584.148,144.36,586.749,144.36Z" fill="rgb(230,230,230)" stroke="none" stroke-width="1"/></g><path id="eefNWq1RnPD41" d="M466.924,213.557L465.819,213.557L465.819,212.453L465.603,212.453L465.603,213.557L464.497,213.557L464.497,213.773L465.603,213.773L465.603,214.877L465.819,214.877L465.819,213.773L466.924,213.773L466.924,213.557Z" fill="rgb(242,242,242)" stroke="none" stroke-width="1"/><path id="eefNWq1RnPD42" d="M566.458,179.613L565.352,179.613L565.352,178.509L565.136,178.509L565.136,179.613L564.03,179.613L564.03,179.829L565.136,179.829L565.136,180.933L565.352,180.933L565.352,179.829L566.458,179.829L566.458,179.613Z" fill="rgb(242,242,242)" stroke="none" stroke-width="1"/><path id="eefNWq1RnPD43" d="M555.533,189.918L554.428,189.918L554.428,188.813L554.212,188.813L554.212,189.918L553.106,189.918L553.106,190.133L554.212,190.133L554.212,191.238L554.428,191.238L554.428,190.133L555.533,190.133L555.533,189.918Z" fill="rgb(242,242,242)" stroke="none" stroke-width="1"/><path id="eefNWq1RnPD44" d="M512.443,164.264C513.784,164.264,514.87,163.179,514.87,161.84C514.87,160.501,513.784,159.415,512.443,159.415C511.102,159.415,510.015,160.501,510.015,161.84C510.015,163.179,511.102,164.264,512.443,164.264Z" fill="rgb(242,242,242)" stroke="none" stroke-width="1"/><path id="eefNWq1RnPD45" d="M392.856,178.93C392.856,348.07,371.56,348.07,345.298,348.07C331.721,348.07,319.472,348.07,310.81,324.706C308.32,317.991,306.12,309.332,304.275,298.187C300.122,273.133,297.741,235.484,297.741,178.93C297.741,157.183,300.318,135.863,304.275,115.951C306.178,106.364,308.399,97.1115,310.81,88.2864C313.758,77.4817,316.989,67.3224,320.249,58.0261C322.434,51.7753,324.642,45.9089,326.784,40.4921C336.68,15.4891,345.298,0,345.298,0C345.298,0,392.856,85.5164,392.856,178.93Z" fill="rgb(250,250,250)" stroke="none" stroke-width="1"/><g id="eefNWq1RnPD46" opacity="0.1"><path id="eefNWq1RnPD47" d="M326.784,40.4921L326.784,335.38L320.249,335.38L320.249,58.0261C322.434,51.7754,324.642,45.909,326.784,40.4921Z" opacity="0.1" fill="rgb(0,0,0)" stroke="none" stroke-width="1"/></g><path id="eefNWq1RnPD48" d="M343.846,142.854C358.282,142.854,369.985,131.166,369.985,116.748C369.985,102.331,358.282,90.6432,343.846,90.6432C329.41,90.6432,317.708,102.331,317.708,116.748C317.708,131.166,329.41,142.854,343.846,142.854Z" fill="rgb(28,27,32)" stroke="none" stroke-width="1"/><path id="eefNWq1RnPD49" d="M401.205,332.117C395.394,317.829,387.931,315.364,383.054,315.578L383.054,313.263L306.817,313.263L306.817,315.578C301.939,315.364,294.477,317.829,288.665,332.117C279.226,355.321,294.474,395.204,294.474,395.204C294.474,395.204,286.325,339.581,313.384,339.214C315.727,342.267,318.603,344.873,321.873,346.906L321.873,361.867L365.57,361.867L365.57,348.268C369.842,346.105,373.572,343.01,376.487,339.214C403.545,339.581,395.397,395.204,395.397,395.204C395.397,395.204,410.644,355.321,401.205,332.117Z" fill="rgb(107,84,182)" stroke="none" stroke-width="1"/><path id="eefNWq1RnPD50" d="M343.846,137.052C355.074,137.052,364.176,127.962,364.176,116.748C364.176,105.535,355.074,96.4443,343.846,96.4443C332.618,96.4443,323.516,105.535,323.516,116.748C323.516,127.962,332.618,137.052,343.846,137.052Z" fill="rgb(96,53,220)" stroke="none" stroke-width="1"/><script><![CDATA[!function(t,n){"object"==typeof exports&&"undefined"!=typeof module?module.exports=n(require("vue")):"function"==typeof define&&define.amd?define(["vue"],n):((t="undefined"!=typeof globalThis?globalThis:t||self).__SVGATOR_PLAYER__=t.__SVGATOR_PLAYER__||{},t.__SVGATOR_PLAYER__["5c7f360c"]=n())}(this,(function(){"use strict";function t(t,n){var r=Object.keys(t);if(Object.getOwnPropertySymbols){var e=Object.getOwnPropertySymbols(t);n&&(e=e.filter((function(n){return Object.getOwnPropertyDescriptor(t,n).enumerable}))),r.push.apply(r,e)}return r}function n(n){for(var r=1;r<arguments.length;r++){var e=null!=arguments[r]?arguments[r]:{};r%2?t(Object(e),!0).forEach((function(t){u(n,t,e[t])})):Object.getOwnPropertyDescriptors?Object.defineProperties(n,Object.getOwnPropertyDescriptors(e)):t(Object(e)).forEach((function(t){Object.defineProperty(n,t,Object.getOwnPropertyDescriptor(e,t))}))}return n}function r(t){return(r="function"==typeof Symbol&&"symbol"==typeof Symbol.iterator?function(t){return typeof t}:function(t){return t&&"function"==typeof Symbol&&t.constructor===Symbol&&t!==Symbol.prototype?"symbol":typeof t})(t)}function e(t,n){if(!(t instanceof n))throw new TypeError("Cannot call a class as a function")}function i(t,n){for(var r=0;r<n.length;r++){var e=n[r];e.enumerable=e.enumerable||!1,e.configurable=!0,"value"in e&&(e.writable=!0),Object.defineProperty(t,e.key,e)}}function o(t,n,r){return n&&i(t.prototype,n),r&&i(t,r),t}function u(t,n,r){return n in t?Object.defineProperty(t,n,{value:r,enumerable:!0,configurable:!0,writable:!0}):t[n]=r,t}function a(t){return(a=Object.setPrototypeOf?Object.getPrototypeOf:function(t){return t.__proto__||Object.getPrototypeOf(t)})(t)}function l(t,n){return(l=Object.setPrototypeOf||function(t,n){return t.__proto__=n,t})(t,n)}function f(t,n){if(n&&("object"==typeof n||"function"==typeof n))return n;if(void 0!==n)throw new TypeError("Derived constructors may only return object or undefined");return function(t){if(void 0===t)throw new ReferenceError("this hasn't been initialised - super() hasn't been called");return t}(t)}function s(t){var n=function(){if("undefined"==typeof Reflect||!Reflect.construct)return!1;if(Reflect.construct.sham)return!1;if("function"==typeof Proxy)return!0;try{return Boolean.prototype.valueOf.call(Reflect.construct(Boolean,[],(function(){}))),!0}catch(t){return!1}}();return function(){var r,e=a(t);if(n){var i=a(this).constructor;r=Reflect.construct(e,arguments,i)}else r=e.apply(this,arguments);return f(this,r)}}function c(t,n,r){return(c="undefined"!=typeof Reflect&&Reflect.get?Reflect.get:function(t,n,r){var e=function(t,n){for(;!Object.prototype.hasOwnProperty.call(t,n)&&null!==(t=a(t)););return t}(t,n);if(e){var i=Object.getOwnPropertyDescriptor(e,n);return i.get?i.get.call(r):i.value}})(t,n,r||t)}var h=v(Math.pow(10,-6));function v(t){var n=arguments.length>1&&void 0!==arguments[1]?arguments[1]:6;if(Number.isInteger(t))return t;var r=Math.pow(10,n);return Math.round((+t+Number.EPSILON)*r)/r}function y(t,n){var r=arguments.length>2&&void 0!==arguments[2]?arguments[2]:h;return Math.abs(t-n)<r}var g=Math.PI/180;function d(t){return t}function p(t,n,r){var e=1-r;return 3*r*e*(t*e+n*r)+r*r*r}function m(){var t=arguments.length>0&&void 0!==arguments[0]?arguments[0]:0,n=arguments.length>1&&void 0!==arguments[1]?arguments[1]:0,r=arguments.length>2&&void 0!==arguments[2]?arguments[2]:1,e=arguments.length>3&&void 0!==arguments[3]?arguments[3]:1;return t<0||t>1||r<0||r>1?null:y(t,n)&&y(r,e)?d:function(i){if(i<=0)return t>0?i*n/t:0===n&&r>0?i*e/r:0;if(i>=1)return r<1?1+(i-1)*(e-1)/(r-1):1===r&&t<1?1+(i-1)*(n-1)/(t-1):1;for(var o,u=0,a=1;u<a;){var l=p(t,r,o=(u+a)/2);if(y(i,l))break;l<i?u=o:a=o}return p(n,e,o)}}function b(){return 1}function w(t){return 1===t?1:0}function x(){var t=arguments.length>0&&void 0!==arguments[0]?arguments[0]:1,n=arguments.length>1&&void 0!==arguments[1]?arguments[1]:0;if(1===t){if(0===n)return w;if(1===n)return b}var r=1/t;return function(t){return t>=1?1:(t+=n*r)-t%r}}var A="undefined"!=typeof window&&/(Mac|iPhone|iPod|iPad)/i.test(window.navigator.platform);Object.freeze({Meta:A?"Control":"Meta",Ctrl:"Control",Down:"ArrowDown",Up:"ArrowUp",Left:"ArrowLeft",Right:"ArrowRight",Esc:"Escape",Delete:"Backspace",Space:"Space"});var k=Math.sin,_=Math.cos,S=Math.acos,O=Math.asin,j=Math.tan,P=Math.atan2,M=Math.PI/180,E=180/Math.PI,R=Math.sqrt,I=function(){function t(){var n=arguments.length>0&&void 0!==arguments[0]?arguments[0]:1,r=arguments.length>1&&void 0!==arguments[1]?arguments[1]:0,i=arguments.length>2&&void 0!==arguments[2]?arguments[2]:0,o=arguments.length>3&&void 0!==arguments[3]?arguments[3]:1,u=arguments.length>4&&void 0!==arguments[4]?arguments[4]:0,a=arguments.length>5&&void 0!==arguments[5]?arguments[5]:0;e(this,t),this.m=[n,r,i,o,u,a],this.i=null,this.w=null,this.s=null}return o(t,[{key:"determinant",get:function(){var t=this.m;return t[0]*t[3]-t[1]*t[2]}},{key:"isIdentity",get:function(){if(null===this.i){var t=this.m;this.i=1===t[0]&&0===t[1]&&0===t[2]&&1===t[3]&&0===t[4]&&0===t[5]}return this.i}},{key:"point",value:function(t,n){var r=this.m;return{x:r[0]*t+r[2]*n+r[4],y:r[1]*t+r[3]*n+r[5]}}},{key:"translateSelf",value:function(){var t=arguments.length>0&&void 0!==arguments[0]?arguments[0]:0,n=arguments.length>1&&void 0!==arguments[1]?arguments[1]:0;if(!t&&!n)return this;var r=this.m;return r[4]+=r[0]*t+r[2]*n,r[5]+=r[1]*t+r[3]*n,this.w=this.s=this.i=null,this}},{key:"rotateSelf",value:function(){var t=arguments.length>0&&void 0!==arguments[0]?arguments[0]:0;if(t%=360){var n=k(t*=M),r=_(t),e=this.m,i=e[0],o=e[1];e[0]=i*r+e[2]*n,e[1]=o*r+e[3]*n,e[2]=e[2]*r-i*n,e[3]=e[3]*r-o*n,this.w=this.s=this.i=null}return this}},{key:"scaleSelf",value:function(){var t=arguments.length>0&&void 0!==arguments[0]?arguments[0]:1,n=arguments.length>1&&void 0!==arguments[1]?arguments[1]:1;if(1!==t||1!==n){var r=this.m;r[0]*=t,r[1]*=t,r[2]*=n,r[3]*=n,this.w=this.s=this.i=null}return this}},{key:"skewSelf",value:function(t,n){if(n%=360,(t%=360)||n){var r=this.m,e=r[0],i=r[1],o=r[2],u=r[3];t&&(t=j(t*M),r[2]+=e*t,r[3]+=i*t),n&&(n=j(n*M),r[0]+=o*n,r[1]+=u*n),this.w=this.s=this.i=null}return this}},{key:"resetSelf",value:function(){var t=arguments.length>0&&void 0!==arguments[0]?arguments[0]:1,n=arguments.length>1&&void 0!==arguments[1]?arguments[1]:0,r=arguments.length>2&&void 0!==arguments[2]?arguments[2]:0,e=arguments.length>3&&void 0!==arguments[3]?arguments[3]:1,i=arguments.length>4&&void 0!==arguments[4]?arguments[4]:0,o=arguments.length>5&&void 0!==arguments[5]?arguments[5]:0,u=this.m;return u[0]=t,u[1]=n,u[2]=r,u[3]=e,u[4]=i,u[5]=o,this.w=this.s=this.i=null,this}},{key:"recomposeSelf",value:function(){var t=arguments.length>0&&void 0!==arguments[0]?arguments[0]:null,n=arguments.length>1&&void 0!==arguments[1]?arguments[1]:null,r=arguments.length>2&&void 0!==arguments[2]?arguments[2]:null,e=arguments.length>3&&void 0!==arguments[3]?arguments[3]:null,i=arguments.length>4&&void 0!==arguments[4]?arguments[4]:null;return this.isIdentity||this.resetSelf(),t&&(t.x||t.y)&&this.translateSelf(t.x,t.y),n&&this.rotateSelf(n),r&&(r.x&&this.skewSelf(r.x,0),r.y&&this.skewSelf(0,r.y)),!e||1===e.x&&1===e.y||this.scaleSelf(e.x,e.y),i&&(i.x||i.y)&&this.translateSelf(i.x,i.y),this}},{key:"decompose",value:function(){var t=arguments.length>0&&void 0!==arguments[0]?arguments[0]:0,n=arguments.length>1&&void 0!==arguments[1]?arguments[1]:0,r=this.m,e=r[0]*r[0]+r[1]*r[1],i=[[r[0],r[1]],[r[2],r[3]]],o=R(e);if(0===o)return{origin:{x:v(r[4]),y:v(r[5])},translate:{x:v(t),y:v(n)},scale:{x:0,y:0},skew:{x:0,y:0},rotate:0};i[0][0]/=o,i[0][1]/=o;var u=r[0]*r[3]-r[1]*r[2]<0;u&&(o=-o);var a=i[0][0]*i[1][0]+i[0][1]*i[1][1];i[1][0]-=i[0][0]*a,i[1][1]-=i[0][1]*a;var l=R(i[1][0]*i[1][0]+i[1][1]*i[1][1]);if(0===l)return{origin:{x:v(r[4]),y:v(r[5])},translate:{x:v(t),y:v(n)},scale:{x:v(o),y:0},skew:{x:0,y:0},rotate:0};i[1][0]/=l,i[1][1]/=l,a/=l;var f=0;return i[1][1]<0?(f=S(i[1][1])*E,i[0][1]<0&&(f=360-f)):f=O(i[0][1])*E,u&&(f=-f),a=P(a,R(i[0][0]*i[0][0]+i[0][1]*i[0][1]))*E,u&&(a=-a),{origin:{x:v(r[4]),y:v(r[5])},translate:{x:v(t),y:v(n)},scale:{x:v(o),y:v(l)},skew:{x:v(a),y:0},rotate:v(f)}}},{key:"toString",value:function(){var t=arguments.length>0&&void 0!==arguments[0]?arguments[0]:" ";return null===this.s&&(this.s="matrix("+this.m.map((function(t){return v(t)})).join(t)+")"),this.s}}]),t}();function N(t,n,r){return t>=.5?r:n}function B(t,n,r){return 0===t||n===r?n:t*(r-n)+n}function F(t,n,r){var e=B(t,n,r);return e<=0?0:e}function T(t,n,r){var e=B(t,n,r);return e<=0?0:e>=1?1:e}function q(t,n,r){return 0===t?n:1===t?r:{x:B(t,n.x,r.x),y:B(t,n.y,r.y)}}function L(t,n,r){var e=function(t,n,r){return Math.round(B(t,n,r))}(t,n,r);return e<=0?0:e>=255?255:e}function C(t,n,r){return 0===t?n:1===t?r:{r:L(t,n.r,r.r),g:L(t,n.g,r.g),b:L(t,n.b,r.b),a:B(t,null==n.a?1:n.a,null==r.a?1:r.a)}}function D(t,n){for(var r=[],e=0;e<t;e++)r.push(n);return r}function z(t,n){if(--n<=0)return t;var r=(t=Object.assign([],t)).length;do{for(var e=0;e<r;e++)t.push(t[e])}while(--n>0);return t}var V,G=function(){function t(n){e(this,t),this.list=n,this.length=n.length}return o(t,[{key:"setAttribute",value:function(t,n){for(var r=this.list,e=0;e<this.length;e++)r[e].setAttribute(t,n)}},{key:"removeAttribute",value:function(t){for(var n=this.list,r=0;r<this.length;r++)n[r].removeAttribute(t)}},{key:"style",value:function(t,n){for(var r=this.list,e=0;e<this.length;e++)r[e].style[t]=n}}]),t}(),Y=/-./g,U=function(t,n){return n.toUpperCase()};function $(t){return"function"==typeof t?t:N}function Q(t){return t?"function"==typeof t?t:Array.isArray(t)?function(t){var n=arguments.length>1&&void 0!==arguments[1]?arguments[1]:d;if(!Array.isArray(t))return n;switch(t.length){case 1:return x(t[0])||n;case 2:return x(t[0],t[1])||n;case 4:return m(t[0],t[1],t[2],t[3])||n}return n}(t,null):function(t,n){var r=arguments.length>2&&void 0!==arguments[2]?arguments[2]:d;switch(t){case"linear":return d;case"steps":return x(n.steps||1,n.jump||0)||r;case"bezier":case"cubic-bezier":return m(n.x1||0,n.y1||0,n.x2||0,n.y2||0)||r}return r}(t.type,t.value,null):null}function H(t,n,r){var e=arguments.length>3&&void 0!==arguments[3]&&arguments[3],i=n.length-1;if(t<=n[0].t)return e?[0,0,n[0].v]:n[0].v;if(t>=n[i].t)return e?[i,1,n[i].v]:n[i].v;var o,u=n[0],a=null;for(o=1;o<=i;o++){if(!(t>n[o].t)){a=n[o];break}u=n[o]}return null==a?e?[i,1,n[i].v]:n[i].v:u.t===a.t?e?[o,1,a.v]:a.v:(t=(t-u.t)/(a.t-u.t),u.e&&(t=u.e(t)),e?[o,t,r(t,u.v,a.v)]:r(t,u.v,a.v))}function J(t,n){var r=arguments.length>2&&void 0!==arguments[2]?arguments[2]:null;return t&&t.length?"function"!=typeof n?null:("function"!=typeof r&&(r=null),function(e){var i=H(e,t,n);return null!=i&&r&&(i=r(i)),i}):null}function Z(t,n){return t.t-n.t}function K(t,n,e,i,o){var u,a="@"===e[0],l="#"===e[0],f=V[e],s=N;switch(a?(u=e.substr(1),e=u.replace(Y,U)):l&&(e=e.substr(1)),r(f)){case"function":if(s=f(i,o,H,Q,e,a,n,t),l)return s;break;case"string":s=J(i,$(f));break;case"object":if((s=J(i,$(f.i),f.f))&&"function"==typeof f.u)return f.u(n,s,e,a,t)}return s?function(t,n,r){if(arguments.length>3&&void 0!==arguments[3]&&arguments[3])return t instanceof G?function(e){return t.style(n,r(e))}:function(e){return t.style[n]=r(e)};if(Array.isArray(n)){var e=n.length;return function(i){var o=r(i);if(null==o)for(var u=0;u<e;u++)t[u].removeAttribute(n);else for(var a=0;a<e;a++)t[a].setAttribute(n,o)}}return function(e){var i=r(e);null==i?t.removeAttribute(n):t.setAttribute(n,i)}}(n,e,s,a):null}function W(t,n,e,i){if(!i||"object"!==r(i))return null;var o=null,u=null;return Array.isArray(i)?u=function(t){if(!t||!t.length)return null;for(var n=0;n<t.length;n++)t[n].e&&(t[n].e=Q(t[n].e));return t.sort(Z)}(i):(u=i.keys,o=i.data||null),u?K(t,n,e,u,o):null}function X(t,n,r){if(!r)return null;var e=[];for(var i in r)if(r.hasOwnProperty(i)){var o=W(t,n,i,r[i]);o&&e.push(o)}return e.length?e:null}function tt(t,n){if(!n.duration||n.duration<0)return null;var r=function(t,n){if(!n)return null;var r=[];if(Array.isArray(n))for(var e=n.length,i=0;i<e;i++){var o=n[i];if(2===o.length){var u=null;if("string"==typeof o[0])u=t.getElementById(o[0]);else if(Array.isArray(o[0])){u=[];for(var a=0;a<o[0].length;a++)if("string"==typeof o[0][a]){var l=t.getElementById(o[0][a]);l&&u.push(l)}u=u.length?1===u.length?u[0]:new G(u):null}if(u){var f=X(t,u,o[1]);f&&(r=r.concat(f))}}}else for(var s in n)if(n.hasOwnProperty(s)){var c=t.getElementById(s);if(c){var h=X(t,c,n[s]);h&&(r=r.concat(h))}}return r.length?r:null}(t,n.elements);return r?function(t,n){var r=arguments.length>2&&void 0!==arguments[2]?arguments[2]:1/0,e=arguments.length>3&&void 0!==arguments[3]?arguments[3]:1,i=arguments.length>4&&void 0!==arguments[4]&&arguments[4],o=arguments.length>5&&void 0!==arguments[5]?arguments[5]:1,u=t.length,a=e>0?n:0;i&&r%2==0&&(a=n-a);var l=null;return function(f,s){var c=f%n,h=1+(f-c)/n;s*=e,i&&h%2==0&&(s=-s);var v=!1;if(h>r)c=a,v=!0,-1===o&&(c=e>0?0:n);else if(s<0&&(c=n-c),c===l)return!1;l=c;for(var y=0;y<u;y++)t[y](c);return v}}(r,n.duration,n.iterations||1/0,n.direction||1,!!n.alternate,n.fill||1):null}function nt(t){return+("0x"+(t.replace(/[^0-9a-fA-F]+/g,"")||27))}function rt(t,n,r){return!t||!r||n>t.length?t:t.substring(0,n)+rt(t.substring(n+1),r,r)}function et(t){var n=arguments.length>1&&void 0!==arguments[1]?arguments[1]:27;return!t||t%n?t%n:et(t/n,n)}function it(t,n,r){if(t&&t.length){var e=nt(r),i=nt(n),o=et(e)+5,u=rt(t,et(e,5),o);return u=u.replace(/\x7c$/g,"==").replace(/\x2f$/g,"="),u=function(t,n,r){var e=+("0x"+t.substring(0,4));t=t.substring(4);for(var i=n%e+r%27,o=[],u=0;u<t.length;u+=2)if("|"!==t[u]){var a=+("0x"+t[u]+t[u+1])-i;o.push(a)}else{var l=+("0x"+t.substring(u+1,u+1+4))-i;u+=3,o.push(l)}return String.fromCharCode.apply(String,o)}(u=(u=atob(u)).replace(/[\x41-\x5A]/g,""),i,e),u=JSON.parse(u)}}Number.isInteger||(Number.isInteger=function(t){return"number"==typeof t&&isFinite(t)&&Math.floor(t)===t}),Number.EPSILON||(Number.EPSILON=2220446049250313e-31);var ot=function(){function t(n,r){var i=arguments.length>2&&void 0!==arguments[2]?arguments[2]:{};e(this,t),this._id=0,this._running=!1,this._rollingBack=!1,this._animations=n,this.duration=r.duration,this.alternate=r.alternate,this.fill=r.fill,this.iterations=r.iterations,this.direction=i.direction||1,this.speed=i.speed||1,this.fps=i.fps||100,this.offset=i.offset||0,this.rollbackStartOffset=0}return o(t,[{key:"_rollback",value:function(){var t=this,n=1/0,r=null;this.rollbackStartOffset=this.offset,this._rollingBack||(this._rollingBack=!0,this._running=!0);this._id=window.requestAnimationFrame((function e(i){if(t._rollingBack){null==r&&(r=i);var o=i-r,u=t.rollbackStartOffset-o,a=Math.round(u*t.speed);if(a>t.duration&&n!=1/0){var l=!!t.alternate&&a/t.duration%2>1,f=a%t.duration;a=(f+=l?t.duration:0)||t.duration}var s=t.fps?1e3/t.fps:0,c=Math.max(0,a);if(c<n-s){t.offset=c,n=c;for(var h=t._animations,v=h.length,y=0;y<v;y++)h[y](c,t.direction)}var g=!1;if(t.iterations>0&&-1===t.fill){var d=t.iterations*t.duration,p=d==a;a=p?0:a,t.offset=p?0:t.offset,g=a>d}a>0&&t.offset>=a&&!g?t._id=window.requestAnimationFrame(e):t.stop()}}))}},{key:"_start",value:function(){var t=this,n=arguments.length>0&&void 0!==arguments[0]?arguments[0]:0,r=-1/0,e=null,i={},o=function o(u){t._running=!0,null==e&&(e=u);var a=Math.round((u-e+n)*t.speed),l=t.fps?1e3/t.fps:0;if(a>r+l&&!t._rollingBack){t.offset=a,r=a;for(var f=t._animations,s=f.length,c=0,h=0;h<s;h++)i[h]?c++:(i[h]=f[h](a,t.direction),i[h]&&c++);if(c===s)return void t._stop()}t._id=window.requestAnimationFrame(o)};this._id=window.requestAnimationFrame(o)}},{key:"_stop",value:function(){this._id&&window.cancelAnimationFrame(this._id),this._running=!1,this._rollingBack=!1}},{key:"play",value:function(){!this._rollingBack&&this._running||(this._rollingBack=!1,this.rollbackStartOffset>this.duration&&(this.offset=this.rollbackStartOffset-(this.rollbackStartOffset-this.offset)%this.duration,this.rollbackStartOffset=0),this._start(this.offset))}},{key:"stop",value:function(){this._stop(),this.offset=0,this.rollbackStartOffset=0;var t=this.direction,n=this._animations;window.requestAnimationFrame((function(){for(var r=0;r<n.length;r++)n[r](0,t)}))}},{key:"reachedToEnd",value:function(){return this.iterations>0&&this.offset>=this.iterations*this.duration}},{key:"restart",value:function(){this._stop(),this.offset=0,this._start()}},{key:"pause",value:function(){this._stop()}},{key:"reverse",value:function(){this.direction=-this.direction}}],[{key:"build",value:function(r,e){return delete r.animationSettings,r.options=it(r.options,r.root,"5c7f360c"),r.animations.map((function(t){var e=it(t.s,r.root,"5c7f360c");for(var i in delete t.s,r.animationSettings||(r.animationSettings=n({},e)),e)e.hasOwnProperty(i)&&(t[i]=e[i])})),(r=function(t,n){if(V=n,!t||!t.root||!Array.isArray(t.animations))return null;for(var r=document.getElementsByTagName("svg"),e=!1,i=0;i<r.length;i++)if(r[i].id===t.root&&!r[i].svgatorAnimation){(e=r[i]).svgatorAnimation=!0;break}if(!e)return null;var o=t.animations.map((function(t){return tt(e,t)})).filter((function(t){return!!t}));return o.length?{element:e,animations:o,animationSettings:t.animationSettings,options:t.options||void 0}:null}(r,e))?{el:r.element,options:r.options||{},player:new t(r.animations,r.animationSettings,r.options)}:null}},{key:"push",value:function(t){return this.build(t)}},{key:"init",value:function(){var t=this,n=window.__SVGATOR_PLAYER__&&window.__SVGATOR_PLAYER__["5c7f360c"];Array.isArray(n)&&n.splice(0).forEach((function(n){return t.build(n)}))}}]),t}();function ut(t){return v(t)+""}function at(t){var n=arguments.length>1&&void 0!==arguments[1]?arguments[1]:" ";return t&&t.length?t.map(ut).join(n):""}function lt(t){return t?null==t.a||t.a>=1?"rgb("+t.r+","+t.g+","+t.b+")":"rgba("+t.r+","+t.g+","+t.b+","+t.a+")":"transparent"}function ft(t){return t?"url(#"+t+")":"none"}!function(){for(var t=0,n=["ms","moz","webkit","o"],r=0;r<n.length&&!window.requestAnimationFrame;++r)window.requestAnimationFrame=window[n[r]+"RequestAnimationFrame"],window.cancelAnimationFrame=window[n[r]+"CancelAnimationFrame"]||window[n[r]+"CancelRequestAnimationFrame"];window.requestAnimationFrame||(window.requestAnimationFrame=function(n){var r=Date.now(),e=Math.max(0,16-(r-t)),i=window.setTimeout((function(){n(r+e)}),e);return t=r+e,i},window.cancelAnimationFrame=window.clearTimeout)}();var st={f:null,i:function(t,n,r){return 0===t?n:1===t?r:{x:F(t,n.x,r.x),y:F(t,n.y,r.y)}},u:function(t,n){return function(r){var e=n(r);t.setAttribute("rx",ut(e.x)),t.setAttribute("ry",ut(e.y))}}},ct={f:null,i:function(t,n,r){return 0===t?n:1===t?r:{width:F(t,n.width,r.width),height:F(t,n.height,r.height)}},u:function(t,n){return function(r){var e=n(r);t.setAttribute("width",ut(e.width)),t.setAttribute("height",ut(e.height))}}};Object.freeze({M:2,L:2,Z:0,H:1,V:1,C:6,Q:4,T:2,S:4,A:7});var ht={},vt=null;function yt(t){var n=function(){if(vt)return vt;if("object"!==("undefined"==typeof document?"undefined":r(document))||!document.createElementNS)return{};var t=document.createElementNS("http://www.w3.org/2000/svg","svg");return t&&t.style?(t.style.position="absolute",t.style.opacity="0.01",t.style.zIndex="-9999",t.style.left="-9999px",t.style.width="1px",t.style.height="1px",vt={svg:t}):{}}().svg;if(!n)return function(t){return null};var e=document.createElementNS(n.namespaceURI,"path");e.setAttributeNS(null,"d",t),e.setAttributeNS(null,"fill","none"),e.setAttributeNS(null,"stroke","none"),n.appendChild(e);var i=e.getTotalLength();return function(t){var n=e.getPointAtLength(i*t);return{x:n.x,y:n.y}}}function gt(t){return ht[t]?ht[t]:ht[t]=yt(t)}function dt(t,n,r,e){if(!t||!e)return!1;var i=["M",t.x,t.y];if(n&&r&&(i.push("C"),i.push(n.x),i.push(n.y),i.push(r.x),i.push(r.y)),n?!r:r){var o=n||r;i.push("Q"),i.push(o.x),i.push(o.y)}return n||r||i.push("L"),i.push(e.x),i.push(e.y),i.join(" ")}function pt(t,n,r,e){var i=arguments.length>4&&void 0!==arguments[4]?arguments[4]:1,o=dt(t,n,r,e),u=gt(o);try{return u(i)}catch(t){return null}}function mt(t,n,r,e){var i=1-e;return i*i*t+2*i*e*n+e*e*r}function bt(t,n,r,e){return 2*(1-e)*(n-t)+2*e*(r-n)}function wt(t,n,r,e){var i=arguments.length>4&&void 0!==arguments[4]&&arguments[4],o=pt(t,n,null,r,e);return o||(o={x:mt(t.x,n.x,r.x,e),y:mt(t.y,n.y,r.y,e)}),i&&(o.a=xt(t,n,r,e)),o}function xt(t,n,r,e){return Math.atan2(bt(t.y,n.y,r.y,e),bt(t.x,n.x,r.x,e))}function At(t,n,r,e,i){var o=i*i;return i*o*(e-t+3*(n-r))+3*o*(t+r-2*n)+3*i*(n-t)+t}function kt(t,n,r,e,i){var o=1-i;return 3*(o*o*(n-t)+2*o*i*(r-n)+i*i*(e-r))}function _t(t,n,r,e,i){var o=arguments.length>5&&void 0!==arguments[5]&&arguments[5],u=pt(t,n,r,e,i);return u||(u={x:At(t.x,n.x,r.x,e.x,i),y:At(t.y,n.y,r.y,e.y,i)}),o&&(u.a=St(t,n,r,e,i)),u}function St(t,n,r,e,i){return Math.atan2(kt(t.y,n.y,r.y,e.y,i),kt(t.x,n.x,r.x,e.x,i))}function Ot(t,n,r){return t+(n-t)*r}function jt(t,n,r){var e=arguments.length>3&&void 0!==arguments[3]&&arguments[3],i={x:Ot(t.x,n.x,r),y:Ot(t.y,n.y,r)};return e&&(i.a=Pt(t,n)),i}function Pt(t,n){return Math.atan2(n.y-t.y,n.x-t.x)}function Mt(t,n,r){var e=arguments.length>3&&void 0!==arguments[3]&&arguments[3];if(Rt(n)){if(It(r))return wt(n,r.start,r,t,e)}else if(Rt(r)){if(n.end)return wt(n,n.end,r,t,e)}else{if(n.end)return r.start?_t(n,n.end,r.start,r,t,e):wt(n,n.end,r,t,e);if(r.start)return wt(n,r.start,r,t,e)}return jt(n,r,t,e)}function Et(t,n,r){var e=Mt(t,n,r,!0);return e.a=function(t){return arguments.length>1&&void 0!==arguments[1]&&arguments[1]?t+Math.PI:t}(e.a)/g,e}function Rt(t){return!t.type||"corner"===t.type}function It(t){return null!=t.start&&!Rt(t)}var Nt=new I;var Bt={f:ut,i:B},Ft={f:ut,i:T};function Tt(t,n,r){return t.map((function(t){return function(t,n,r){var e=t.v;if(!e||"g"!==e.t||e.s||!e.v||!e.r)return t;var i=r.getElementById(e.r),o=i&&i.querySelectorAll("stop")||[];return e.s=e.v.map((function(t,n){var r=o[n]&&o[n].getAttribute("offset");return{c:t,o:r=v(parseInt(r)/100)}})),delete e.v,t}(t,0,r)}))}var qt={gt:"gradientTransform",c:{x:"cx",y:"cy"},rd:"r",f:{x:"x1",y:"y1"},to:{x:"x2",y:"y2"}};function Lt(t,n,e,i,o,u,a,l){return Tt(t,0,l),n=function(t,n,r){for(var e,i,o,u=t.length-1,a={},l=0;l<=u;l++)(e=t[l]).e&&(e.e=n(e.e)),e.v&&"g"===(i=e.v).t&&i.r&&(o=r.getElementById(i.r))&&(a[i.r]={e:o,s:o.querySelectorAll("stop")});return a}(t,i,l),function(i){var o=e(i,t,Ct);if(!o)return"none";if("c"===o.t)return lt(o.v);if("g"===o.t){if(!n[o.r])return ft(o.r);var u=n[o.r];return function(t,n){for(var r=t.s,e=r.length;e<n.length;e++){var i=r[r.length-1].cloneNode();i.id=Vt(i.id),t.e.appendChild(i),r=t.s=t.e.querySelectorAll("stop")}for(var o=0,u=r.length,a=n.length-1;o<u;o++)r[o].setAttribute("stop-color",lt(n[Math.min(o,a)].c)),r[o].setAttribute("offset",n[Math.min(o,a)].o)}(u,o.s),Object.keys(qt).forEach((function(t){if(void 0!==o[t])if("object"!==r(qt[t])){var n,e="gt"===t?(n=o[t],Array.isArray(n)?"matrix("+n.join(" ")+")":""):o[t],i=qt[t];u.e.setAttribute(i,e)}else Object.keys(qt[t]).forEach((function(n){if(void 0!==o[t][n]){var r=o[t][n],e=qt[t][n];u.e.setAttribute(e,r)}}))})),ft(o.r)}return"none"}}function Ct(t,r,e){if(0===t)return r;if(1===t)return e;if(r&&e){var i=r.t;if(i===e.t)switch(r.t){case"c":return{t:i,v:C(t,r.v,e.v)};case"g":if(r.r===e.r){var o={t:i,s:Dt(t,r.s,e.s),r:r.r};return r.gt&&e.gt&&(o.gt=function(t,n,r){var e=n.length;if(e!==r.length)return N(t,n,r);for(var i=new Array(e),o=0;o<e;o++)i[o]=B(t,n[o],r[o]);return i}(t,r.gt,e.gt)),r.c?(o.c=q(t,r.c,e.c),o.rd=F(t,r.rd,e.rd)):r.f&&(o.f=q(t,r.f,e.f),o.to=q(t,r.to,e.to)),o}}if("c"===r.t&&"g"===e.t||"c"===e.t&&"g"===r.t){var u="c"===r.t?r:e,a="g"===r.t?n({},r):n({},e),l=a.s.map((function(t){return{c:u.v,o:t.o}}));return a.s="c"===r.t?Dt(t,l,a.s):Dt(t,a.s,l),a}}return N(t,r,e)}function Dt(t,n,r){if(n.length===r.length)return n.map((function(n,e){return zt(t,n,r[e])}));for(var e=Math.max(n.length,r.length),i=[],o=0;o<e;o++){var u=zt(t,n[Math.min(o,n.length-1)],r[Math.min(o,r.length-1)]);i.push(u)}return i}function zt(t,n,r){return{o:T(t,n.o,r.o||0),c:C(t,n.c,r.c||{})}}function Vt(t){return t.replace(/-fill-([0-9]+)$/,(function(t,n){return"-fill-"+(+n+1)}))}var Gt={fill:Lt,"fill-opacity":Ft,stroke:Lt,"stroke-opacity":Ft,"stroke-width":Bt,"stroke-dashoffset":{f:ut,i:B},"stroke-dasharray":{f:function(t){var n=arguments.length>1&&void 0!==arguments[1]?arguments[1]:" ";return t&&t.length>0&&(t=t.map((function(t){return v(t,4)}))),at(t,n)},i:function(t,n,r){var e,i,o,u=n.length,a=r.length;if(u!==a)if(0===u)n=D(u=a,0);else if(0===a)a=u,r=D(u,0);else{var l=(o=(e=u)*(i=a)/function(t,n){for(var r;n;)r=n,n=t%n,t=r;return t||1}(e,i))<0?-o:o;n=z(n,Math.floor(l/u)),r=z(r,Math.floor(l/a)),u=a=l}for(var f=[],s=0;s<u;s++)f.push(v(F(t,n[s],r[s])));return f}},opacity:Ft,transform:function(t,n,e,i){if(!(t=function(t,n){if(!t||"object"!==r(t))return null;var e=!1;for(var i in t)t.hasOwnProperty(i)&&(t[i]&&t[i].length?(t[i].forEach((function(t){t.e&&(t.e=n(t.e))})),e=!0):delete t[i]);return e?t:null}(t,i)))return null;var o=function(r,i,o){var u=arguments.length>3&&void 0!==arguments[3]?arguments[3]:null;return t[r]?e(i,t[r],o):n&&n[r]?n[r]:u};return n&&n.a&&t.o?function(n){var r=e(n,t.o,Et);return Nt.recomposeSelf(r,o("r",n,B,0)+r.a,o("k",n,q),o("s",n,q),o("t",n,q)).toString()}:function(t){return Nt.recomposeSelf(o("o",t,Mt,null),o("r",t,B,0),o("k",t,q),o("s",t,q),o("t",t,q)).toString()}},r:Bt,"#size":ct,"#radius":st,_:function(t,n){if(Array.isArray(t))for(var r=0;r<t.length;r++)this[t[r]]=n;else this[t]=n}},Yt=function(t){!function(t,n){if("function"!=typeof n&&null!==n)throw new TypeError("Super expression must either be null or a function");t.prototype=Object.create(n&&n.prototype,{constructor:{value:t,writable:!0,configurable:!0}}),n&&l(t,n)}(r,t);var n=s(r);function r(){return e(this,r),n.apply(this,arguments)}return o(r,null,[{key:"build",value:function(t){var n=c(a(r),"build",this).call(this,t,Gt);if(!n)return null;n.el,n.options,function(t,n,r){t.play()}(n.player)}}]),r}(ot);return Yt.init(),Yt}));
(function(s,i,o,w){w[o]=w[o]||{};w[o][s]=w[o][s]||[];w[o][s].push(i);})('5c7f360c',{"root":"eefNWq1RnPD1","animations":[{"elements":{"eefNWq1RnPD2":{"transform":{"data":{"t":{"x":-319.387009,"y":-137.554897}},"keys":{"o":[{"t":0,"v":{"x":319.387009,"y":137.554897,"type":"corner"}},{"t":2400,"v":{"x":305.473009,"y":133.402712,"type":"corner"}},{"t":5000,"v":{"x":319.387009,"y":137.554897,"type":"corner"}}]}}},"eefNWq1RnPD13":{"transform":{"data":{"o":{"x":624.114502,"y":341.863998,"type":"corner"},"t":{"x":-624.114502,"y":-341.863998}},"keys":{"s":[{"t":0,"v":{"x":1,"y":1}},{"t":900,"v":{"x":1.5,"y":1.5}},{"t":2000,"v":{"x":0.5,"y":0.5}},{"t":3000,"v":{"x":2,"y":2}},{"t":4000,"v":{"x":1,"y":1}},{"t":5000,"v":{"x":1,"y":1}}]}}},"eefNWq1RnPD14":{"transform":{"data":{"o":{"x":423.209714,"y":205.482002,"type":"corner"},"t":{"x":-423.833496,"y":-205.482002}},"keys":{"s":[{"t":0,"v":{"x":1,"y":1}},{"t":1000,"v":{"x":0.5,"y":0.5}},{"t":2000,"v":{"x":2,"y":2}},{"t":3000,"v":{"x":0.5,"y":0.5}},{"t":4000,"v":{"x":1,"y":1}},{"t":5000,"v":{"x":1,"y":1}}]}}},"eefNWq1RnPD15":{"transform":{"data":{"o":{"x":634.432007,"y":180.024506,"type":"corner"},"t":{"x":-634.432007,"y":-180.024506}},"keys":{"r":[{"t":0,"v":0},{"t":1100,"v":0},{"t":2100,"v":0},{"t":3100,"v":0},{"t":4000,"v":0},{"t":5000,"v":0}],"s":[{"t":0,"v":{"x":1,"y":1}},{"t":1100,"v":{"x":2,"y":2}},{"t":2100,"v":{"x":1,"y":1}},{"t":3100,"v":{"x":2,"y":2}},{"t":4000,"v":{"x":1,"y":1}},{"t":5000,"v":{"x":1,"y":1}}]}}},"eefNWq1RnPD16":{"transform":{"data":{"o":{"x":268.464493,"y":301.252502,"type":"corner"},"t":{"x":-268.464493,"y":-301.252502}},"keys":{"s":[{"t":0,"v":{"x":1,"y":1}},{"t":1000,"v":{"x":2,"y":2}},{"t":2000,"v":{"x":1,"y":1}},{"t":3000,"v":{"x":2,"y":2}},{"t":4000,"v":{"x":1,"y":1}},{"t":5000,"v":{"x":1,"y":1}}]}}},"eefNWq1RnPD17":{"transform":{"data":{"o":{"x":230.835999,"y":352.471497,"type":"corner"},"t":{"x":-230.835999,"y":-352.471497}},"keys":{"s":[{"t":0,"v":{"x":1,"y":1}},{"t":2000,"v":{"x":5,"y":5}},{"t":4000,"v":{"x":1,"y":1}},{"t":5000,"v":{"x":1,"y":1}}]}}},"eefNWq1RnPD19":{"transform":{"data":{"o":{"x":677.522522,"y":244.577995,"type":"corner"},"t":{"x":-677.522522,"y":-244.577995}},"keys":{"r":[{"t":0,"v":0},{"t":4000,"v":360},{"t":5000,"v":0}],"s":[{"t":0,"v":{"x":1,"y":1}},{"t":2100,"v":{"x":2,"y":2}},{"t":4000,"v":{"x":1,"y":1}},{"t":5000,"v":{"x":1,"y":1}}]}}},"eefNWq1RnPD20":{"transform":{"data":{"o":{"x":480.276489,"y":293.069504,"type":"corner"},"t":{"x":-480.276489,"y":-293.069504}},"keys":{"r":[{"t":0,"v":0},{"t":2100,"v":360},{"t":4000,"v":0},{"t":5000,"v":0}],"s":[{"t":0,"v":{"x":1,"y":1}},{"t":2100,"v":{"x":3,"y":3}},{"t":4000,"v":{"x":1,"y":1}},{"t":5000,"v":{"x":1,"y":1}}]}}},"eefNWq1RnPD24":{"transform":{"data":{"o":{"x":232.050003,"y":223.362999,"type":"corner"},"t":{"x":-232.050003,"y":-223.362999}},"keys":{"r":[{"t":0,"v":0},{"t":4000,"v":360},{"t":5000,"v":0}],"s":[{"t":0,"v":{"x":1,"y":1}},{"t":2100,"v":{"x":2,"y":2}},{"t":4000,"v":{"x":1,"y":1}},{"t":5000,"v":{"x":1,"y":1}}]}}},"eefNWq1RnPD25":{"transform":{"data":{"t":{"x":-570.7385,"y":-270.34436}},"keys":{"o":[{"t":0,"v":{"x":562.110272,"y":230.731081,"type":"corner"}},{"t":1300,"v":{"x":570.543549,"y":233.857401,"type":"corner"}},{"t":2900,"v":{"x":563.414954,"y":240.365463,"type":"corner"}},{"t":4000,"v":{"x":570.856418,"y":236.063697,"type":"corner"}},{"t":5000,"v":{"x":562.110272,"y":230.731081,"type":"corner"}}]}}},"eefNWq1RnPD27":{"transform":{"data":{"o":{"x":548.377,"y":229.612449,"type":"corner"},"t":{"x":-548.572025,"y":-241.551447}},"keys":{"r":[{"t":0,"v":0},{"t":1600,"v":17.209193},{"t":3000,"v":-1.502625},{"t":4000,"v":6.214597},{"t":5000,"v":0}]}}},"eefNWq1RnPD36":{"transform":{"data":{"o":{"x":596.868,"y":205.482,"type":"corner"},"t":{"x":-596.868,"y":-205.482}},"keys":{"r":[{"t":0,"v":0},{"t":2000,"v":27.939019},{"t":3000,"v":17.416242},{"t":5000,"v":0}]}}},"eefNWq1RnPD44":{"transform":{"data":{"o":{"x":512.442505,"y":161.8395,"type":"corner"},"t":{"x":-512.442505,"y":-161.8395}},"keys":{"s":[{"t":0,"v":{"x":1,"y":1}},{"t":800,"v":{"x":2,"y":2}},{"t":1800,"v":{"x":1,"y":1}},{"t":2800,"v":{"x":2,"y":2}},{"t":4000,"v":{"x":1,"y":1}},{"t":5000,"v":{"x":1,"y":1}}]}}}},"s":"MODA1M2E0NGI4ZDllRTMliOGE5ZDkyTzk4UTkQ3NGJHNjM1ZTU5NTk1FOVg1NTRiOGQ5MjliORGU4YzlkOTJKOTg5NzJRiNjM1YTU1NGI5MjlIkOGU5YjhhOWQ5Mjk4OOTc5YzRiNjNPNTk1NYTRiSzhmOTI5NUI5NTBRiNjM1YTU1NGI4YTkH1OWQ4ZTliOTc4YTlkROGU0YjYzOGY4YTk1OPWM4ZTU1NGI5Yzk5OGQU4ZThkNGJQNjM1YWEO2"}],"options":"MQDAxMDg4MmY4MDgxNmRU3ZjgxMmY0NzJmNzkS3YzZlNzEyZjhh"},'__SVGATOR_PLAYER__',window)]]></script></svg>